<svg xmlns="http://www.w3.org/2000/svg" width="13" height="16"><path fill="#9EBBBD" d="M9.573 7.729c.406 0 .784.07 1.126.209.342.14.639.33.881.569.232.227.438.503.614.82a5 5 0 0 1 .407.949c.097.312.178.654.242 1.016.062.359.105.699.126 1.011q.03.462.031.945c0 .836-.259 1.512-.768 2.01-.504.492-1.17.742-1.98.742H2.748c-.81 0-1.477-.25-1.98-.742C.259 14.76 0 14.084 0 13.248c0-.322.01-.64.032-.945.02-.312.063-.652.126-1.01.063-.363.144-.705.242-1.017.1-.323.238-.643.407-.948q.265-.479.613-.821c.243-.238.54-.43.882-.57a3 3 0 0 1 1.125-.208c.16 0 .313.067.61.265q.276.185.636.421.308.202.822.372c.333.11.671.167 1.005.167a3.2 3.2 0 0 0 1.006-.167 3.6 3.6 0 0 0 .822-.372l.636-.42c.296-.2.45-.266.61-.266zM6.598 0C7.63 0 8.522.38 9.252 1.129s1.1 1.666 1.1 2.724c0 1.06-.37 1.976-1.1 2.725s-1.623 1.13-2.654 1.13-1.924-.38-2.653-1.13-1.1-1.666-1.1-2.725c0-1.058.37-1.975 1.1-2.724S5.567 0 6.598 0"/></svg>