<svg xmlns="http://www.w3.org/2000/svg" width="87" height="54"><path fill="#3D6666" d="M6.72 17.472q1.416 0 2.544-.36c1.128-.36 1.392-.584 1.92-1.032a4.5 4.5 0 0 0 1.212-1.62q.42-.948.42-2.124v-.288q0-2.208-1.392-3.336T7.392 7.104a15 15 0 0 1-1.74-.408q-.684-.216-1.104-.492T3.96 5.58a1.8 1.8 0 0 1-.168-.78q0-.84.696-1.332t1.896-.492q1.416 0 2.196.744t.78 1.752v.576h3.168v-.864a5 5 0 0 0-.396-1.968 4.8 4.8 0 0 0-1.176-1.656Q10.176.84 9.024.42T6.384 0q-1.32 0-2.388.36c-1.068.36-1.32.576-1.824 1.008q-.756.648-1.176 1.524T.576 4.8v.144q0 1.248.432 2.112a4 4 0 0 0 1.212 1.44q.78.576 1.836.924t2.328.564q.96.168 1.584.408t.984.54c.36.3.408.424.504.672q.144.372.144.78 0 .864-.696 1.488t-2.136.624q-1.848 0-2.724-.9t-.876-2.412v-.576H0v.72q0 1.32.432 2.436a5.5 5.5 0 0 0 1.272 1.944q.84.828 2.1 1.296t2.916.468m22-.336V10.8h3.408q1.296 0 2.256-.432a4.7 4.7 0 0 0 1.596-1.14 4.8 4.8 0 0 0 .96-1.608q.324-.9.324-1.836v-.576q0-.912-.324-1.788a4.6 4.6 0 0 0-.96-1.56A4.7 4.7 0 0 0 34.384.756q-.96-.42-2.256-.42h-6.576v16.8zm3.096-9.36H28.72V3.36h3.096q1.056 0 1.668.576t.612 1.488v.288q0 .912-.612 1.488t-1.668.576m29.464 9.36v-3.024h-7.632V.336H50.48v16.8zm24.88 0v-3.024h-4.032V3.36h4.032V.336H74.928V3.36h4.032v10.752h-4.032v3.024zm-78.096 36V39.36h4.464v-3.024H.432v3.024h4.464v13.776zm24.688 0V39.36h4.464v-3.024H25.12v3.024h4.464v13.776zm28.624 0v-3.024h-7.728v-3.888H60.8V43.2h-7.152v-3.84h7.44v-3.024H50.48v16.8zm16.744 0V46.8h3.648q.696 0 .996.36t.3.936v5.04h3.168v-5.808q0-.84-.492-1.392t-1.332-.648v-.432q1.152-.48 1.704-1.38a3.63 3.63 0 0 0 .552-1.932v-.576q0-.96-.348-1.8a4.3 4.3 0 0 0-1.008-1.476q-.66-.636-1.644-.996t-2.28-.36h-6.432v16.8zm3.024-9.36H78.12V39.36h3.024q1.152 0 1.752.612t.6 1.452v.288q0 .984-.6 1.524t-1.752.54"/></svg>