<svg xmlns="http://www.w3.org/2000/svg" width="162" height="108"><g fill="none"><path fill="#E6E6E6" d="M30 93.744h-.044a24 24 0 0 1-1.61-.189.543.543 0 0 1 .155-1.076q.78.114 1.563.178a.538.538 0 0 1-.043 1.076zm5.37-.205a.538.538 0 0 1-.08-1.076 20 20 0 0 0 1.54-.306.536.536 0 0 1 .645.403.54.54 0 0 1-.397.646 22 22 0 0 1-1.611.323zm-12.137-1.312a.5.5 0 0 1-.183-.033 24 24 0 0 1-1.525-.608.539.539 0 0 1 .424-.99c.483.21.983.404 1.472.587a.538.538 0 0 1-.188 1.044m18.759-.829a.538.538 0 0 1-.242-1.022c.467-.226.934-.479 1.39-.742a.536.536 0 1 1 .538.93c-.478.275-.967.538-1.45.78a.54.54 0 0 1-.258.054zm-24.994-2.292a.54.54 0 0 1-.29-.08c-.457-.29-.913-.597-1.36-.91a.536.536 0 1 1 .612-.882c.436.307.876.597 1.322.883a.538.538 0 0 1-.284.99Zm30.772-1.544a.54.54 0 0 1-.408-.193.54.54 0 0 1 .06-.759l.117-.124a39 39 0 0 0 1.074-.957.537.537 0 1 1 .73.79c-.375.345-.74.673-1.106.985l-.123.102a.54.54 0 0 1-.344.156m-36.326-2.69a.54.54 0 0 1-.36-.14c-.402-.37-.8-.747-1.18-1.124a.539.539 0 0 1 .751-.769c.376.371.763.737 1.155 1.076a.54.54 0 0 1 .032.764.54.54 0 0 1-.398.194Zm41.305-2.21a.537.537 0 0 1-.398-.899c.355-.393.715-.79 1.074-1.2a.537.537 0 1 1 .806.71q-.549.622-1.074 1.21a.54.54 0 0 1-.408.152v.026ZM6.724 79.723a.54.54 0 0 1-.424-.204 42 42 0 0 1-.989-1.308.54.54 0 0 1 .124-.753.536.536 0 0 1 .746.124c.312.425.629.85.962 1.27a.539.539 0 0 1-.42.871Zm50.579-2.383a.539.539 0 0 1-.419-.877c.338-.414.677-.828 1.015-1.253a.537.537 0 1 1 .838.672l-1.02 1.259a.54.54 0 0 1-.414.199M2.9 73.887a.54.54 0 0 1-.473-.312c-.257-.5-.499-1-.714-1.485a.539.539 0 0 1 .685-.72.54.54 0 0 1 .298.285c.21.462.44.946.687 1.425a.54.54 0 0 1-.483.786zm58.753-2.028a.537.537 0 0 1-.424-.866l.988-1.275a.537.537 0 1 1 .848.656l-.988 1.275a.54.54 0 0 1-.424.188zM.682 67.286a.54.54 0 0 1-.537-.462A17 17 0 0 1 0 65.16a.538.538 0 1 1 1.074 0q.027.779.134 1.55a.54.54 0 0 1-.462.607l-.064-.032Zm65.24-.973a.537.537 0 0 1-.43-.867l.984-1.28a.536.536 0 0 1 .853.65l-.993 1.265a.54.54 0 0 1-.414.21zm88.49-2.96a.7.7 0 0 1-.15 0 .537.537 0 0 1-.366-.666c.134-.474.28-.99.424-1.544a.54.54 0 0 1 .655-.388.537.537 0 0 1 .382.662c-.145.538-.29 1.076-.43 1.565a.54.54 0 0 1-.515.372Zm-84.247-2.592a.536.536 0 0 1-.424-.867l.983-1.28a.54.54 0 1 1 .854.662l-.989 1.275a.54.54 0 0 1-.413.183zm-68.924-.382a.5.5 0 0 1-.156 0 .54.54 0 0 1-.355-.673 22 22 0 0 1 .537-1.565.537.537 0 1 1 .994.403c-.193.49-.37.985-.537 1.474a.54.54 0 0 1-.473.334zm154.782-3.863a.3.3 0 0 1-.102 0 .54.54 0 0 1-.43-.624c.097-.538.188-1.044.28-1.582a.545.545 0 1 1 1.073.178q-.134.807-.279 1.614a.54.54 0 0 1-.542.414M74.46 55.209a.537.537 0 0 1-.424-.872l1.004-1.27a.537.537 0 1 1 .838.673l-.999 1.264a.54.54 0 0 1-.408.205zM4.436 54.165a.539.539 0 0 1-.43-.855c.323-.436.666-.872 1.02-1.297a.537.537 0 1 1 .822.694 23 23 0 0 0-.977 1.237.54.54 0 0 1-.435.221m74.408-4.417a.539.539 0 0 1-.414-.877l1.026-1.248a.537.537 0 1 1 .843.667l-1.02 1.243a.54.54 0 0 1-.435.215m78.124-.161h-.043a.54.54 0 0 1-.494-.576c.043-.538.075-1.076.107-1.614a.54.54 0 0 1 .564-.538c.295.018.52.27.505.565a54 54 0 0 1-.107 1.614.54.54 0 0 1-.532.549M9.28 49.13a.537.537 0 0 1-.338-.958c.8-.646 1.316-.99 1.337-1.006a.536.536 0 0 1 .59.898s-.499.334-1.25.942a.54.54 0 0 1-.35.124zm74.075-4.74a.537.537 0 0 1-.403-.888c.35-.408.704-.817 1.074-1.22a.537.537 0 1 1 .806.71c-.355.403-.71.806-1.074 1.215a.54.54 0 0 1-.414.183h.01Zm73.742-1.797a.537.537 0 0 1-.537-.505 54 54 0 0 0-.118-1.614.54.54 0 1 1 1.074-.097c.048.538.091 1.076.118 1.614 0 .285-.221.52-.505.538zm-69.064-3.416a.537.537 0 0 1-.392-.904q.548-.596 1.106-1.178a.536.536 0 0 1 .779.737l-1.074 1.173a.54.54 0 0 1-.44.172zm68.092-3.502a.54.54 0 0 1-.537-.409 23 23 0 0 0-.408-1.533.539.539 0 0 1 1.03-.307c.151.538.296 1.05.425 1.587a.54.54 0 0 1-.398.651zm-63.221-1.512a.537.537 0 0 1-.376-.92l1.165-1.13a.537.537 0 1 1 .763.76c-.387.365-.768.741-1.155 1.118a.54.54 0 0 1-.419.172zm5.14-4.745a.537.537 0 0 1-.355-.941l1.235-1.076a.539.539 0 1 1 .693.828q-.613.512-1.225 1.039a.54.54 0 0 1-.37.15h.021Zm55.197-.575a25 25 0 0 0-.779-1.378.537.537 0 1 1 .918-.554c.285.463.537.947.811 1.431a.54.54 0 0 1-.478.791.54.54 0 0 1-.472-.29M103.5 25.055a.539.539 0 0 1-.322-.974c.44-.322.88-.634 1.32-.946a.537.537 0 0 1 .845.394.54.54 0 0 1-.227.488l-1.3.93a.54.54 0 0 1-.338.108zm46.132-1.56a.54.54 0 0 1-.381-.161q-.538-.538-1.144-1.076a.536.536 0 1 1 .709-.807c.408.36.81.742 1.197 1.135a.54.54 0 0 1 0 .759.54.54 0 0 1-.403.15zm-40.279-2.28a.537.537 0 0 1-.274-1.001q.71-.41 1.418-.797a.54.54 0 0 1 .81.474.54.54 0 0 1-.273.468c-.467.253-.929.538-1.39.785a.54.54 0 0 1-.344.07h.053Zm34.737-1.894a.5.5 0 0 1-.258-.07c-.451-.248-.924-.49-1.407-.716a.539.539 0 0 1 .462-.974c.499.237.988.49 1.46.748a.538.538 0 0 1-.257 1.012m-28.49-1.195a.537.537 0 0 1-.2-1.038q.756-.306 1.52-.581a.537.537 0 0 1 .366 1.011q-.742.266-1.483.57a.54.54 0 0 1-.247.038zm22.045-1.452a1 1 0 0 1-.156 0c-.505-.15-1.02-.29-1.53-.41a.553.553 0 0 1 .252-1.075q.805.192 1.611.425a.542.542 0 0 1-.15 1.076zm-15.456-.597a.537.537 0 0 1-.118-1.066c.537-.107 1.074-.21 1.61-.29a.543.543 0 0 1 .59.735.54.54 0 0 1-.423.34c-.537.082-1.036.178-1.557.286a.4.4 0 0 1-.102-.005m8.555-.603h-.038a32 32 0 0 0-1.579-.06.538.538 0 0 1 0-1.075c.537 0 1.074.027 1.638.06a.538.538 0 0 1-.032 1.075h.01Z"/><path fill="#39475F" d="M119.847 100.221H58.146L70.332.793h55.025l5.747 7.601z"/><path fill="#61728D" d="M113.172 100.221H51.465L63.651.793h61.706z"/><path fill="#181F27" d="M110.132 81.354H58.576l8.791-71.695h51.557z"/><path fill="#1E252E" d="m92.743 50.055 14.897.177-.29 2.308-14.607-.252z"/><path fill="#39475F" d="m51.465 100.221 7.422 6.864 60.037.915.923-7.779z"/><path fill="#2D394B" d="M99.096 29.058s2.572.183 3.888 5.03.865 18.377.865 18.377l-11.096-.177s-5.537-20.137 6.343-23.23"/><path fill="#FC7614" d="M5.42 32.843 45.778 0l21.18 26.119L26.603 58.96z"/><path fill="#FFF" d="M27.49 21.931 45.56 7.226l3.497 4.313-18.07 14.706z"/><path fill="#FFF" d="m25.272 45.175 5.338-4.345a2.77 2.77 0 0 1 3.902.404 2.78 2.78 0 0 1-.404 3.91l-5.338 4.344a2.77 2.77 0 0 1-3.903-.404 2.78 2.78 0 0 1 .405-3.91Zm12.058-9.81 16.89-13.743a2.77 2.77 0 0 1 3.902.404 2.78 2.78 0 0 1-.405 3.909L40.83 39.679a2.77 2.77 0 0 1-3.903-.404 2.78 2.78 0 0 1 .405-3.91Z" opacity=".46"/><ellipse cx="17.937" cy="33.636" fill="#FFF" opacity=".3" rx="3.673" ry="3.68"/><ellipse cx="21.664" cy="30.284" fill="#FFF" opacity=".3" rx="3.673" ry="3.68"/><path fill="#BAD6FA" d="M99.096 29.058s-5.838 2.103-3.803 18.581c1.493 12.073-3.55 28.056-11.004 28.25s-21.202-.463-21.202-.463 7.159-18.56 5.676-34.145a14.8 14.8 0 0 1 .763-6.456c.87-2.373 2.487-4.842 5.494-5.245 6.004-.818 24.076-.522 24.076-.522"/><path fill="#546F8D" d="m58.957 76.63 26.342-.537s-4.017-3.992-4.27-14.154l-36.234.538a31.5 31.5 0 0 0 2.841 7.531 12.55 12.55 0 0 0 11.32 6.623Z"/><path fill="#2D394B" d="m78.21 14.834-.918 6.041h26.621l.806-6.041z"/><path fill="#FFF" d="M85.54 86.19c-2.872-2.517-7.416-2.022-9.446 1.222a4.96 4.96 0 0 0-.8 2.647c0 3.98 2.744 6.59 8.227 5.492 4.184-.839 5.779-6.073 2.02-9.36Z" opacity=".48"/><ellipse cx="147.188" cy="81.542" fill="#FC7614" rx="14.812" ry="14.837"/><path fill="#FFF" d="M73.731 35.75a.537.537 0 0 1-.038-1.076c.113 0 11.343-.828 17.363-.29a.54.54 0 0 1-.096 1.076c-5.908-.538-17.079.274-17.186.285zm-.891 7.279a.538.538 0 0 1-.038-1.076c.113 0 11.342-.828 17.363-.29a.54.54 0 0 1-.097 1.076c-5.907-.538-17.073.28-17.185.285zm-.102 7.564a.538.538 0 0 1-.043-1.076c.112 0 11.347-.829 17.362-.29a.54.54 0 0 1-.096 1.075c-5.908-.538-17.073.28-17.186.286zm-.715 7.564a.537.537 0 0 1-.037-1.076c.112 0 11.342-.829 17.362-.285a.54.54 0 0 1-.096 1.076c-5.908-.538-17.073.28-17.186.285z"/></g></svg>